<svg xmlns="http://www.w3.org/2000/svg" width="125.767" height="125.767" viewBox="0 0 125.767 125.767">
  <g id="LogoCirc" transform="translate(12171.817 2142.009)">
    <path id="Path_79" data-name="Path 79" d="M62.884,0A62.884,62.884,0,1,1,0,62.884,62.884,62.884,0,0,1,62.884,0Z" transform="translate(-12171.817 -2142.009)" fill="#084887"/>
    <g id="Logo" transform="translate(-12138.978 -2128.38)">
      <path id="Union_4" data-name="Union 4" d="M15.872,18.738l2.241-2.867V7.407c-.152.013-.326.029-.518.047A57.1,57.1,0,0,0,7.646,9.3c-4.436,1.29-4.827,2.831-4.83,2.846H.182A6.8,6.8,0,0,1,.441,8.22c.74-1.737,5.311-5.707,8.378-6.6A41.363,41.363,0,0,1,17.595.027a3.25,3.25,0,0,1,.518-.01V0h2.631V.047a3.06,3.06,0,0,1,.791-.02A41.362,41.362,0,0,1,30.31,1.621c3.067.892,7.638,4.861,8.378,6.6a6.794,6.794,0,0,1,.259,3.922H36.313c0-.015-.394-1.556-4.83-2.846a57.1,57.1,0,0,0-9.949-1.842c-.32-.031-.59-.054-.791-.069v8.471l2.366,2.882L19.4,23.254Z" transform="translate(10.559 26.142)" fill="#f6f6f6"/>
      <g id="Left-side" transform="translate(6.032 40.113)">
        <path id="Path_1" data-name="Path 1" d="M0-12.68,2.631-14.5v28.5L0,11Z" transform="translate(4.723 14.497)" fill="#f6f6f6"/>
        <path id="Path_2" data-name="Path 2" d="M0-13.319,2.631-14.5V3.982L0,2.029Z" transform="translate(0 18.147)" fill="#f6f6f6"/>
        <path id="Path_3" data-name="Path 3" d="M0-12.68,2.631-14.5v28.5L0,11Z" transform="translate(4.723 14.497)" fill="#f6f6f6"/>
        <path id="Path_4" data-name="Path 4" d="M0-12.68,2.631-14.5v28.5L0,11Z" transform="translate(4.723 14.497)" fill="#f6f6f6"/>
        <path id="Path_7" data-name="Path 7" d="M0,0H2.631V22.2L0,19.7Z" transform="translate(14.872 19.048)" fill="#f6f6f6"/>
        <g id="Group_2" data-name="Group 2" transform="translate(9.735 7.348)">
          <path id="Union_12" data-name="Union 12" d="M0,25.426V11.7H1.017L0,11.692A12.091,12.091,0,0,1,3.349,3.835,15.018,15.018,0,0,1,9.09.22,6.811,6.811,0,0,1,9.89,0l1.825,2.405c-.026.005-1.44.167-1.711.257A12.822,12.822,0,0,0,5.2,5.7a9.546,9.546,0,0,0-2.57,6V27.172Z" fill="#f6f6f6"/>
          <path id="Path_9" data-name="Path 9" d="M-11813.01-1692.47l-2.631-.022a12.08,12.08,0,0,1,3.348-7.857,15.031,15.031,0,0,1,5.742-3.616,6.778,6.778,0,0,1,.8-.219l.5,2.583c-.025.005-.207.046-.478.135a12.343,12.343,0,0,0-4.716,2.986A9.545,9.545,0,0,0-11813.01-1692.47Z" transform="translate(11815.641 1704.184)" fill="#f6f6f6"/>
        </g>
        <path id="Path_10" data-name="Path 10" d="M5.911,0l5.627,7.025H0Z" transform="translate(20.009 8.974) rotate(180)" fill="#f6f6f6"/>
        <path id="Path_22" data-name="Path 22" d="M-6.313-.129H3.27L1.194,2.452l-5.4.066Z" transform="translate(25.532 13.958)" fill="#f6f6f6"/>
      </g>
      <g id="helmet-left" transform="translate(0 9.199)">
        <path id="Union_9" data-name="Union 9" d="M8.754,15.4a.292.292,0,0,1,.056-.148L0,3.957V0L10.8,13.187q.153-.167.318-.352c1.169-1.768,1.511-6.216,4.933-7.785,2.224-1.312.314-.4,5.3-2.566a20.566,20.566,0,0,1,3.251-.741l.143,13c-.013,0-.361,0-1.495,0-2.069.187-1.357-.228-7.687,1.968-4.42,2.281-5.215,3.635-5.218,3.65l-1.6,1.768Z" transform="translate(2.016 0)" fill="#f6f6f6"/>
        <path id="Path_23" data-name="Path 23" d="M.087,3.032,2.631,0,2.544,9.955,0,12.987Z" transform="matrix(0.766, -0.643, 0.643, 0.766, 0, 17.479)" fill="#f6f6f6"/>
        <path id="Path_24" data-name="Path 24" d="M.087,3.032,2.631,0,2.544,9.955,0,12.987Z" transform="matrix(0.766, -0.643, 0.643, 0.766, 0.391, 9.836)" fill="#f6f6f6"/>
      </g>
      <g id="helmet-right" transform="translate(33.104 9.199)">
        <path id="Union_9-2" data-name="Union 9" d="M0,18.174l8.81-11.3a.292.292,0,0,1-.056-.149V0l1.6,1.768c0,.015.8,1.369,5.218,3.65,6.331,2.2,5.619,1.781,7.687,1.968,1.134,0,1.482,0,1.495,0l-.143,13a20.553,20.553,0,0,1-3.251-.741c-4.99-2.167-3.08-1.255-5.3-2.566-3.422-1.568-3.764-6.017-4.933-7.785q-.165-.185-.318-.352L0,22.131Z" transform="translate(24.751 22.131) rotate(180)" fill="#f6f6f6"/>
        <path id="Path_23-2" data-name="Path 23" d="M.087,9.955l2.544,3.032L2.544,3.032,0,0Z" transform="translate(18.42 27.427) rotate(-140)" fill="#f6f6f6"/>
        <path id="Path_24-2" data-name="Path 24" d="M.087,9.955l2.544,3.032L2.544,3.032,0,0Z" transform="translate(18.028 19.784) rotate(-140)" fill="#f6f6f6"/>
      </g>
      <g id="Right-side" transform="translate(31.467 40.113)">
        <path id="Path_1-2" data-name="Path 1" d="M2.631-12.68,0-14.5v28.5L2.631,11Z" transform="translate(15.286 14.497)" fill="#f6f6f6"/>
        <path id="Path_2-2" data-name="Path 2" d="M2.631-13.319,0-14.5V3.982L2.631,2.029Z" transform="translate(20.009 18.147)" fill="#f6f6f6"/>
        <path id="Path_3-2" data-name="Path 3" d="M2.631-12.68,0-14.5v28.5L2.631,11Z" transform="translate(15.286 14.497)" fill="#f6f6f6"/>
        <path id="Path_4-2" data-name="Path 4" d="M2.631-12.68,0-14.5v28.5L2.631,11Z" transform="translate(15.286 14.497)" fill="#f6f6f6"/>
        <path id="Union_11" data-name="Union 11" d="M8.8,11.7h0a9.544,9.544,0,0,0-2.57-6A12.337,12.337,0,0,0,1.519,2.718C1.248,2.629.032,2.365,0,2.359L1.544,0a6.808,6.808,0,0,1,.8.22A15.016,15.016,0,0,1,8.085,3.836a12.089,12.089,0,0,1,3.349,7.857l-1.026.009h1.026V25.426L8.8,27.172Z" transform="translate(1.472 7.347)" fill="#f6f6f6"/>
        <path id="Path_6" data-name="Path 6" d="M-11806.5-1609.471" transform="translate(11818.091 1628.52)" fill="#f6f6f6"/>
        <path id="Path_7-2" data-name="Path 7" d="M2.631,0H0V22.2L2.631,19.7Z" transform="translate(5.137 19.048)" fill="#f6f6f6"/>
        <path id="Path_10-2" data-name="Path 10" d="M5.911,7.186,11.538,0H0Z" transform="translate(2.798 2.071)" fill="#f6f6f6"/>
        <path id="Subtraction_1" data-name="Subtraction 1" d="M0,27.967H0v-3.02l2.632-2.631v2.5L0,27.967Zm0-4.743H0V19.586l2.632-2.631v3.637L0,23.224Zm0-5.36H0V13.13L2.632,10.5v4.734L0,17.864Zm0-6.457H0V7.038L2.632,4.407V8.776L0,11.407ZM0,5.316H0V0H2.632V2.685L0,5.316Z" transform="translate(0 19.048)" fill="#f6f6f6"/>
      </g>
      <g id="Beard" transform="translate(23.211 85.491)">
        <path id="Path_13" data-name="Path 13" d="M.034,2.334,1.924,0l.123,4.823L0,7.351Z" transform="matrix(0.777, -0.629, 0.629, 0.777, 1.075, 1.288)" fill="#f6f6f6"/>
        <path id="Path_31" data-name="Path 31" d="M.034,5.017l1.89,2.334.123-4.823L0,0Z" transform="translate(7.922 7.001) rotate(-141)" fill="#f6f6f6"/>
        <path id="Path_32" data-name="Path 32" d="M0,.029,3.039,0l.12,4.689L.183,8.364Z" transform="translate(0 6.517) rotate(-39)" fill="#f6f6f6"/>
        <path id="Path_33" data-name="Path 33" d="M0,8.336l3.039.029.12-4.689L.183,0Z" transform="translate(8.035 13.017) rotate(-141)" fill="#f6f6f6"/>
      </g>
      <path id="Helmet_spike" data-name="Helmet spike" d="M4.913,24.137V7.629L4.577,7.2v.039L0,3.786,4.451,0l.082,4.682H7.572L7.653,0,12.1,3.786,8.112,6.8l-.568.692V24.137Z" transform="translate(23.759 0)" fill="#f6f6f6"/>
    </g>
    <rect id="Rectangle_5" data-name="Rectangle 5" width="0.581" height="39.485" transform="translate(-12109.515 -2069.385)" fill="#fff"/>
    <path id="Subtraction_2" data-name="Subtraction 2" d="M0,0H0V3.02L2.631,5.652v-2.5L0,0ZM0,4.743H0V8.381l2.631,2.631V7.374L0,4.743ZM0,10.1H0v4.734l2.631,2.631V12.735L0,10.1ZM0,16.56H0v4.369L2.631,23.56V19.191L0,16.56Zm0,6.091H0v5.316H2.631V25.282L0,22.651Z" transform="translate(-12110.484 -2041.251) rotate(180)" fill="#f6f6f6"/>
    <rect id="Rectangle_149" data-name="Rectangle 149" width="0.581" height="39.485" transform="translate(-12108.934 -2069.385)" fill="#fff"/>
  </g>
</svg>
